ffmpeg version 3.4.8-0ubuntu0.2 Copyright (c) 2000-2020 the FFmpeg developers
  built with gcc 7 (Ubuntu 7.5.0-3ubuntu1~18.04)
  configuration: --prefix=/usr --extra-version=0ubuntu0.2 --toolchain=hardened --libdir=/usr/lib/x86_64-linux-gnu --incdir=/usr/include/x86_64-linux-gnu --enable-gpl --disable-stripping --enable-avresample --enable-avisynth --enable-gnutls --enable-ladspa --enable-libass --enable-libbluray --enable-libbs2b --enable-libcaca --enable-libcdio --enable-libflite --enable-libfontconfig --enable-libfreetype --enable-libfribidi --enable-libgme --enable-libgsm --enable-libmp3lame --enable-libmysofa --enable-libopenjpeg --enable-libopenmpt --enable-libopus --enable-libpulse --enable-librubberband --enable-librsvg --enable-libshine --enable-libsnappy --enable-libsoxr --enable-libspeex --enable-libssh --enable-libtheora --enable-libtwolame --enable-libvorbis --enable-libvpx --enable-libwavpack --enable-libwebp --enable-libx265 --enable-libxml2 --enable-libxvid --enable-libzmq --enable-libzvbi --enable-omx --enable-openal --enable-opengl --enable-sdl2 --enable-libdc1394 --enable-libdrm --enable-libiec61883 --enable-chromaprint --enable-frei0r --enable-libopencv --enable-libx264 --enable-shared
  libavutil      55. 78.100 / 55. 78.100
  libavcodec     57.107.100 / 57.107.100
  libavformat    57. 83.100 / 57. 83.100
  libavdevice    57. 10.100 / 57. 10.100
  libavfilter     6.107.100 /  6.107.100
  libavresample   3.  7.  0 /  3.  7.  0
  libswscale      4.  8.100 /  4.  8.100
  libswresample   2.  9.100 /  2.  9.100
  libpostproc    54.  7.100 / 54.  7.100
[rawvideo @ 0x55cdef815a20] Estimating duration from bitrate, this may be inaccurate
Input #0, rawvideo, from '../../SVC-Encoder-20220109T061506Z-001/SVC-Encoder/Dataset/RollerCoaster/6f_2x2/tile_yuv/f0_t3_480x480.yuv':
  Duration: 00:00:10.00, start: 0.000000, bitrate: 82944 kb/s
    Stream #0:0: Video: rawvideo (I420 / 0x30323449), yuv420p, 480x480, 82944 kb/s, 30 tbr, 30 tbn, 30 tbc
Stream mapping:
  Stream #0:0 -> #0:0 (rawvideo (native) -> h264 (libx264))
Press [q] to stop, [?] for help
[libx264 @ 0x55cdef822c60] using cpu capabilities: MMX2 SSE2Fast LZCNT SSSE3 SSE4.2 AVX
[libx264 @ 0x55cdef822c60] profile High, level 3.0
Output #0, rawvideo, to 'RollerCoaster_f0_t3_480x480_x264_QP_24.h264':
  Metadata:
    encoder         : Lavf57.83.100
    Stream #0:0: Video: h264 (libx264), yuv420p, 480x480, q=-1--1, 30 fps, 30 tbn, 30 tbc
    Metadata:
      encoder         : Lavc57.107.100 libx264
    Side data:
      cpb: bitrate max/min/avg: 0/0/0 buffer size: 0 vbv_delay: -1
frame=   88 fps=0.0 q=30.0 PSNR=Y:nan U:nan V:nan *:nan size=     175kB time=00:00:01.50 bitrate= 953.1kbits/s speed=2.99x    frame=  138 fps=138 q=30.0 PSNR=Y:nan U:nan V:nan *:nan size=     256kB time=00:00:03.16 bitrate= 662.3kbits/s speed=3.16x    frame=  190 fps=126 q=30.0 PSNR=Y:nan U:nan V:nan *:nan size=     512kB time=00:00:04.90 bitrate= 856.0kbits/s speed=3.25x    frame=  245 fps=122 q=30.0 PSNR=Y:nan U:nan V:nan *:nan size=     512kB time=00:00:06.73 bitrate= 622.9kbits/s speed=3.35x    frame=  299 fps=119 q=30.0 PSNR=Y:nan U:nan V:nan *:nan size=     768kB time=00:00:08.53 bitrate= 737.3kbits/s speed=3.39x    frame=  300 fps=105 q=30.0 LPSNR=Y:inf U:inf V:inf *:inf size=    1073kB time=00:00:09.93 bitrate= 885.3kbits/s speed=3.46x    
video:1073kB audio:0kB subtitle:0kB other streams:0kB global headers:0kB muxing overhead: 0.000000%
[libx264 @ 0x55cdef822c60] frame I:2     Avg QP:23.93  size: 24442  PSNR Mean Y:42.52 U:44.96 V:48.11 Avg:43.45 Global:43.44
[libx264 @ 0x55cdef822c60] frame P:76    Avg QP:25.10  size:  8569  PSNR Mean Y:40.75 U:44.65 V:47.69 Avg:41.89 Global:41.85
[libx264 @ 0x55cdef822c60] frame B:222   Avg QP:29.46  size:  1798  PSNR Mean Y:39.60 U:44.42 V:47.54 Avg:40.86 Global:40.84
[libx264 @ 0x55cdef822c60] consecutive B-frames:  1.0%  0.0%  3.0% 96.0%
[libx264 @ 0x55cdef822c60] mb I  I16..4:  8.8% 51.4% 39.8%
[libx264 @ 0x55cdef822c60] mb P  I16..4:  2.5%  7.8%  1.8%  P16..4: 29.6% 26.1% 13.7%  0.0%  0.0%    skip:18.4%
[libx264 @ 0x55cdef822c60] mb B  I16..4:  0.2%  0.6%  0.1%  B16..8: 35.0% 14.3%  1.7%  direct: 1.4%  skip:46.7%  L0:37.2% L1:42.7% BI:20.1%
[libx264 @ 0x55cdef822c60] 8x8 transform intra:62.9% inter:67.5%
[libx264 @ 0x55cdef822c60] coded y,uvDC,uvAC intra: 60.6% 71.7% 32.1% inter: 16.9% 14.0% 0.4%
[libx264 @ 0x55cdef822c60] i16 v,h,dc,p: 15% 35% 18% 32%
[libx264 @ 0x55cdef822c60] i8 v,h,dc,ddl,ddr,vr,hd,vl,hu:  7% 34% 17%  1% 13% 11% 10%  2%  5%
[libx264 @ 0x55cdef822c60] i4 v,h,dc,ddl,ddr,vr,hd,vl,hu: 11% 26% 11%  2% 20% 15%  9%  2%  4%
[libx264 @ 0x55cdef822c60] i8c dc,h,v,p: 39% 37% 11% 13%
[libx264 @ 0x55cdef822c60] Weighted P-Frames: Y:1.3% UV:0.0%
[libx264 @ 0x55cdef822c60] ref P L0: 59.3% 17.9% 17.7%  5.0%  0.1%
[libx264 @ 0x55cdef822c60] ref B L0: 91.9%  7.1%  1.0%
[libx264 @ 0x55cdef822c60] ref B L1: 95.5%  4.5%
[libx264 @ 0x55cdef822c60] PSNR Mean Y:39.911 U:44.484 V:47.585 Avg:41.138 Global:41.089 kb/s:879.37
